<svg width="68" height="68" viewBox="0 0 68 68" fill="none" xmlns="http://www.w3.org/2000/svg">
<rect width="68" height="68" rx="8" fill="#F2F4F8"/>
<g clip-path="url(#clip0_7304_1037)">
<path d="M48.423 60.7531L44.3984 58.3819V45.8621C44.3984 45.4119 44.0333 45.0469 43.5831 45.0469C43.1328 45.0469 42.7678 45.4119 42.7678 45.8621V58.3819L38.7431 60.7531C38.627 60.8215 38.6755 60.9995 38.8103 60.9995H48.3558C48.4906 60.9995 48.5392 60.8215 48.423 60.7531Z" fill="white"/>
<path d="M26.6612 21.748V7.75263C26.6612 7.33697 26.3242 7 25.9086 7H21.8714C21.4557 7 21.1187 7.33697 21.1187 7.75263V21.748C21.1187 22.5326 20.8575 23.2948 20.3761 23.9144L18.5796 26.2272C17.4475 27.6844 16.833 29.4773 16.833 31.3226V59.4584C16.833 60.3098 17.5232 61 18.3746 61H29.4053C30.2568 61 30.9469 60.3098 30.9469 59.4584V31.3226C30.9469 29.4772 30.3324 27.6844 29.2004 26.2272L27.4038 23.9144C26.9225 23.2948 26.6612 22.5326 26.6612 21.748Z" fill="#6A42DB"/>
<path d="M49.3864 30.3887H37.7799C37.7799 30.3887 35.0685 37.0868 36.3369 41.3679C37.3933 44.9332 40.5343 46.4604 42.3147 47.0543C43.138 47.329 44.0282 47.329 44.8514 47.0543C46.6318 46.4604 49.7729 44.9332 50.8292 41.3679C52.0979 37.0868 49.3864 30.3887 49.3864 30.3887Z" fill="white"/>
<path d="M36.0525 37.498C35.9407 38.8443 35.9899 40.1963 36.3369 41.3674C37.3932 44.9328 40.5343 46.4599 42.3147 47.0538C43.138 47.3285 44.0281 47.3285 44.8514 47.0538C46.6318 46.4599 49.7728 44.9328 50.8292 41.3674C51.1762 40.1963 51.2254 38.8443 51.1136 37.498H36.0525Z" fill="#6A42DB"/>
<path d="M30.9464 47.7596H23.4643C22.7208 47.7596 22.1182 47.1569 22.1182 46.4135V36.8754C22.1182 36.1319 22.7208 35.5293 23.4643 35.5293H30.9464V47.7596Z" fill="#9170EE"/>
<path d="M25.908 7H21.8708C21.4551 7 21.1182 7.33697 21.1182 7.75262V20.0744H26.6608C26.6608 20.0744 26.6608 10.5343 26.6608 7.75262C26.6607 7.33697 26.3237 7 25.908 7Z" fill="#5732BF"/>
<path d="M26.8024 12.1275H20.9777C20.8078 12.1275 20.6699 11.9897 20.6699 11.8197V9.72182C20.6699 9.55191 20.8077 9.41406 20.9777 9.41406H26.8024C26.9723 9.41406 27.1102 9.5518 27.1102 9.72182V11.8197C27.1101 11.9897 26.9723 12.1275 26.8024 12.1275Z" fill="#5732BF"/>
</g>
<defs>
<clipPath id="clip0_7304_1037">
<rect width="54" height="54" fill="white" transform="translate(7 7)"/>
</clipPath>
</defs>
</svg>
