<svg width="52" height="16" viewBox="0 0 52 16" fill="none" xmlns="http://www.w3.org/2000/svg">
<path d="M16.3039 11.064C16.3039 11.6761 16.1867 12.2538 15.9524 12.7971C15.725 13.3336 15.4079 13.8047 15.0013 14.2105C14.6015 14.6094 14.1294 14.9257 13.585 15.1596C13.0474 15.3865 12.4719 15.5 11.8585 15.5C11.3071 15.5 10.7764 15.4037 10.2664 15.2111C9.76327 15.0186 9.30839 14.7366 8.90175 14.3652C8.49512 14.7366 8.03679 15.0186 7.52677 15.2111C7.01675 15.4037 6.48606 15.5 5.93469 15.5C5.32129 15.5 4.74235 15.3865 4.19787 15.1596C3.66028 14.9257 3.18817 14.6094 2.78153 14.2105C2.38179 13.8047 2.06475 13.3336 1.83042 12.7971C1.60298 12.2538 1.48926 11.6761 1.48926 11.064V0.5H4.45632V11.064C4.45632 11.2703 4.49423 11.4663 4.57004 11.652C4.64586 11.8308 4.74924 11.989 4.88019 12.1265C5.01803 12.2572 5.17655 12.3604 5.35575 12.436C5.53494 12.5117 5.72792 12.5495 5.93469 12.5495C6.14145 12.5495 6.33443 12.5117 6.51363 12.436C6.69282 12.3604 6.84789 12.2572 6.97885 12.1265C7.11669 11.989 7.22352 11.8308 7.29933 11.652C7.37514 11.4663 7.41305 11.2703 7.41305 11.064V0.5H10.3801V11.064C10.3801 11.2703 10.418 11.4663 10.4938 11.652C10.5696 11.8308 10.673 11.989 10.804 12.1265C10.9418 12.2572 11.1003 12.3604 11.2795 12.436C11.4587 12.5117 11.6517 12.5495 11.8585 12.5495C12.0652 12.5495 12.2582 12.5117 12.4374 12.436C12.6166 12.3604 12.7717 12.2572 12.9026 12.1265C13.0405 11.989 13.1473 11.8308 13.2231 11.652C13.3058 11.4663 13.3472 11.2703 13.3472 11.064V0.5H16.3039V11.064Z" fill="white"/>
<path d="M22.4902 0.5H19.3047V15.5H22.4902V0.5Z" fill="white"/>
<path d="M37.3482 15.3972H34.1743L28.4573 5.65854V15.3972H25.4902V0.603516H28.6641L34.3811 10.3525V0.603516H37.3482V15.3972Z" fill="white"/>
<path d="M50.5101 15.3972H40.3477V0.603516H50.5101V3.56431H43.3147V6.52511H48.184V9.48591H43.3147V12.4364H50.5101V15.3972Z" fill="white"/>
</svg>
