<svg width="32" height="33" viewBox="0 0 32 33" fill="none" xmlns="http://www.w3.org/2000/svg">
<path d="M16.0003 23.8333C17.667 23.8333 19.0837 23.25 20.2503 22.0833C21.417 20.9167 22.0003 19.5 22.0003 17.8333C22.0003 16.1667 21.417 14.75 20.2503 13.5833C19.0837 12.4167 17.667 11.8333 16.0003 11.8333C14.3337 11.8333 12.917 12.4167 11.7503 13.5833C10.5837 14.75 10.0003 16.1667 10.0003 17.8333C10.0003 19.5 10.5837 20.9167 11.7503 22.0833C12.917 23.25 14.3337 23.8333 16.0003 23.8333ZM16.0003 21.1667C15.067 21.1667 14.2781 20.8444 13.6337 20.2C12.9892 19.5556 12.667 18.7667 12.667 17.8333C12.667 16.9 12.9892 16.1111 13.6337 15.4667C14.2781 14.8222 15.067 14.5 16.0003 14.5C16.9337 14.5 17.7225 14.8222 18.367 15.4667C19.0114 16.1111 19.3337 16.9 19.3337 17.8333C19.3337 18.7667 19.0114 19.5556 18.367 20.2C17.7225 20.8444 16.9337 21.1667 16.0003 21.1667ZM5.33366 28.5C4.60033 28.5 3.97255 28.2389 3.45033 27.7167C2.9281 27.1944 2.66699 26.5667 2.66699 25.8333V9.83333C2.66699 9.1 2.9281 8.47222 3.45033 7.95C3.97255 7.42778 4.60033 7.16667 5.33366 7.16667H9.53366L11.2003 5.36667C11.4448 5.1 11.7392 4.88889 12.0837 4.73333C12.4281 4.57778 12.7892 4.5 13.167 4.5H18.8337C19.2114 4.5 19.5725 4.57778 19.917 4.73333C20.2614 4.88889 20.5559 5.1 20.8003 5.36667L22.467 7.16667H26.667C27.4003 7.16667 28.0281 7.42778 28.5503 7.95C29.0725 8.47222 29.3337 9.1 29.3337 9.83333V25.8333C29.3337 26.5667 29.0725 27.1944 28.5503 27.7167C28.0281 28.2389 27.4003 28.5 26.667 28.5H5.33366Z" fill="#CFDBEA"/>
</svg>
