<svg width="20" height="20" viewBox="0 0 20 20" fill="none" xmlns="http://www.w3.org/2000/svg">
<path d="M9.99985 14.3952L6.54152 16.4785C6.38874 16.5757 6.22902 16.6174 6.06235 16.6035C5.89568 16.5896 5.74985 16.5341 5.62485 16.4368C5.49985 16.3396 5.40263 16.2181 5.33318 16.0723C5.26374 15.9264 5.24985 15.7632 5.29152 15.5827L6.20818 11.6452L3.14568 8.99935C3.00679 8.87435 2.91999 8.73199 2.88527 8.57227C2.85054 8.41254 2.86096 8.25629 2.91652 8.10352C2.97207 7.95074 3.05541 7.82574 3.16652 7.72852C3.27763 7.63129 3.43041 7.56879 3.62485 7.54102L7.66652 7.18685L9.22902 3.47852C9.29846 3.31185 9.4061 3.18685 9.55193 3.10352C9.69777 3.02018 9.84707 2.97852 9.99985 2.97852C10.1526 2.97852 10.3019 3.02018 10.4478 3.10352C10.5936 3.18685 10.7012 3.31185 10.7707 3.47852L12.3332 7.18685L16.3748 7.54102C16.5693 7.56879 16.7221 7.63129 16.8332 7.72852C16.9443 7.82574 17.0276 7.95074 17.0832 8.10352C17.1387 8.25629 17.1492 8.41254 17.1144 8.57227C17.0797 8.73199 16.9929 8.87435 16.854 8.99935L13.7915 11.6452L14.7082 15.5827C14.7498 15.7632 14.736 15.9264 14.6665 16.0723C14.5971 16.2181 14.4998 16.3396 14.3748 16.4368C14.2498 16.5341 14.104 16.5896 13.9373 16.6035C13.7707 16.6174 13.611 16.5757 13.4582 16.4785L9.99985 14.3952Z" fill="#6A42DB"/>
</svg>
