<svg width="34" height="34" viewBox="0 0 34 34" fill="none" xmlns="http://www.w3.org/2000/svg">
<path d="M17.0001 18.9835L10.0585 25.9251C9.79874 26.1849 9.46819 26.3147 9.0668 26.3147C8.66541 26.3147 8.33485 26.1849 8.07513 25.9251C7.81541 25.6654 7.68555 25.3349 7.68555 24.9335C7.68555 24.5321 7.81541 24.2015 8.07513 23.9418L15.0168 17.0001L8.07513 10.0585C7.81541 9.79874 7.68555 9.46819 7.68555 9.0668C7.68555 8.66541 7.81541 8.33485 8.07513 8.07513C8.33485 7.81541 8.66541 7.68555 9.0668 7.68555C9.46819 7.68555 9.79874 7.81541 10.0585 8.07513L17.0001 15.0168L23.9418 8.07513C24.2015 7.81541 24.5321 7.68555 24.9335 7.68555C25.3349 7.68555 25.6654 7.81541 25.9251 8.07513C26.1849 8.33485 26.3147 8.66541 26.3147 9.0668C26.3147 9.46819 26.1849 9.79874 25.9251 10.0585L18.9835 17.0001L25.9251 23.9418C26.1849 24.2015 26.3147 24.5321 26.3147 24.9335C26.3147 25.3349 26.1849 25.6654 25.9251 25.9251C25.6654 26.1849 25.3349 26.3147 24.9335 26.3147C24.5321 26.3147 24.2015 26.1849 23.9418 25.9251L17.0001 18.9835Z" fill="#9FACBD"/>
</svg>
